<?xml version="1.0" encoding="utf-8"?>
<!-- Generator: Adobe Illustrator 25.2.1, SVG Export Plug-In . SVG Version: 6.00 Build 0)  -->
<svg version="1.1" id="Calque_1" xmlns="http://www.w3.org/2000/svg" xmlns:xlink="http://www.w3.org/1999/xlink" x="0px" y="0px"
	 viewBox="0 0 1280 1034" style="enable-background:new 0 0 1280 1034;" xml:space="preserve">
<style type="text/css">
	.st0{fill:url(#SVGID_1_);}
</style>
<g transform="translate(0.000000,1034.000000) scale(0.100000,-0.100000)">
	<linearGradient id="SVGID_1_" gradientUnits="userSpaceOnUse" x1="0" y1="5170" x2="1279.2667" y2="5170">
		<stop  offset="0.6899" style="stop-color:#66B22E"/>
		<stop  offset="0.824" style="stop-color:#66B22E"/>
		<stop  offset="1" style="stop-color:#1D3E1D"/>
	</linearGradient>
	<path class="st0" d="M3299,10336c-2-2-47-11-99-20c-365-62-671-286-833-612c-19-38-296-690-615-1449s-585-1392-592-1406
		c-9-20-28-31-83-48c-85-28-260-108-332-153c-361-228-611-583-699-993C0,5442,0,5457,0,3695V2030l513-2l512-3l6-580l5-580l27-100
		c29-107,85-233,142-319c106-160,285-302,468-371c76-28,298-75,357-75c66,0,285,48,367,81c298,118,514,364,600,684l27,100l5,580
		l6,580h3365h3365l6-590c5-514,8-598,23-655c54-205,145-361,292-500c156-146,323-225,563-265c114-19,154-17,316,16
		c391,79,695,380,781,774c15,71,17,147,18,650l1,570l510,5l510,5l5,1670c5,1525,4,1681-12,1795c-28,212-60,323-139,490
		c-81,169-166,289-308,430c-184,183-369,299-599,375c-65,21-85,32-96,53c-8,15-278,657-601,1427s-603,1429-622,1465
		c-113,205-311,391-519,486c-99,45-186,71-320,94c-111,20-163,20-3192,20C4689,10340,3301,10338,3299,10336z M9461,9499
		c68-32,127-89,156-149c49-105,1023-2442,1023-2455s-532-15-4241-15H2158l4,28c5,27,980,2367,1017,2440c42,83,109,138,204,168
		c34,10,578,12,3032,11l2990-2L9461,9499z M2185,5879c252-25,465-126,640-303c195-197,295-441,295-719c-1-469-314-871-775-997
		c-120-33-329-38-455-12c-200,41-366,129-513,271c-154,148-254,330-296,538c-120,589,300,1161,899,1222c47,4,88,9,91,10
		C2074,5889,2126,5885,2185,5879z M10814,5869c224-32,477-180,626-365c286-358,307-833,54-1221c-52-79-204-230-290-286
		c-85-56-206-109-317-139c-71-20-106-23-252-22c-141,0-183,4-247,22c-183,50-348,145-475,273c-129,129-213,271-269,455
		c-26,83-28,102-28,269c0,154,3,191,22,258c51,185,138,334,271,468C10152,5823,10455,5920,10814,5869z"/>
</g>
</svg>
