<?xml version="1.0" encoding="iso-8859-1"?>
<!-- Generator: Adobe Illustrator 19.1.0, SVG Export Plug-In . SVG Version: 6.00 Build 0)  -->
<svg version="1.1" id="Capa_1" xmlns="http://www.w3.org/2000/svg" xmlns:xlink="http://www.w3.org/1999/xlink" x="0px" y="0px"
	 viewBox="0 0 63.904 63.904" style="enable-background:new 0 0 63.904 63.904;" xml:space="preserve">
<g>
	<g>
		<g id="group-18svg">
			<path id="path-1_8_" d="M51.907,46.5c0,3.038-2.463,5.5-5.5,5.5h-30c-3.037,0-5.5-2.462-5.5-5.5v-41c0-3.038,2.463-5.5,5.5-5.5
				h30c3.037,0,5.5,2.462,5.5,5.5V46.5z M48.907,5.5c0-1.381-1.119-2.5-2.5-2.5h-30c-1.381,0-2.5,1.119-2.5,2.5v41
				c0,1.381,1.119,2.5,2.5,2.5h30c1.381,0,2.5-1.119,2.5-2.5V5.5z"/>
			<path id="path-2_8_" d="M43.907,54c0,0.552-0.447,1-1,1h-6c-0.553,0-1-0.448-1-1v-2c0-0.552,0.447-1,1-1h6c0.553,0,1,0.448,1,1
				V54z"/>
			<path id="path-3_8_" d="M47.073,63.904c-2.55,0-4.582-0.681-6.067-2.04c-2.936-2.685-2.435-6.907-2.412-7.086
				c0.104-0.822,0.86-1.408,1.677-1.298c0.821,0.105,1.401,0.852,1.3,1.671c-0.007,0.054-0.309,2.898,1.474,4.512
				c1.433,1.298,4.029,1.581,7.508,0.818c9.408-2.063,10.873-1.129,11.561,0.006c0.51,0.839,0.26,1.789-0.215,2.358
				c-0.531,0.636-1.475,0.723-2.112,0.193c-0.249-0.208-0.414-0.479-0.491-0.771c-0.895-0.056-3.085,0.045-8.101,1.145
				C49.7,63.74,48.325,63.904,47.073,63.904z"/>
			<path id="path-4_8_" d="M27.907,52c0-0.552-0.447-1-1-1h-6c-0.552,0-1,0.448-1,1v2c0,0.552,0.448,1,1,1h6c0.553,0,1-0.448,1-1V52
				z"/>
			<path id="path-5_8_" d="M16.831,63.904c-1.251,0-2.626-0.164-4.122-0.492c-5.011-1.1-7.197-1.204-8.1-1.145
				c-0.077,0.292-0.241,0.563-0.491,0.771c-0.636,0.529-1.581,0.444-2.112-0.192c-0.475-0.57-0.725-1.52-0.215-2.359
				c0.69-1.135,2.148-2.07,11.561-0.006c3.478,0.764,6.075,0.481,7.508-0.818c1.791-1.621,1.478-4.483,1.474-4.512
				c-0.096-0.82,0.488-1.568,1.308-1.668c0.812-0.105,1.565,0.477,1.67,1.295c0.022,0.179,0.523,4.401-2.413,7.086
				C21.414,63.222,19.383,63.904,16.831,63.904z"/>
			<path id="path-6_7_" d="M32.181,47.332c-3.957,0-7.177-3.219-7.177-7.177c0-3.957,3.22-7.177,7.177-7.177s7.176,3.22,7.176,7.177
				C39.356,44.113,36.138,47.332,32.181,47.332z M32.181,35.978c-2.303,0-4.177,1.874-4.177,4.177c0,2.303,1.874,4.177,4.177,4.177
				c2.302,0,4.176-1.874,4.176-4.177C36.356,37.852,34.482,35.978,32.181,35.978z"/>
			<path id="path-7_7_" d="M32.407,38.5c-0.828,0-1.5-0.671-1.5-1.5v-3c0-0.829,0.672-1.5,1.5-1.5s1.5,0.671,1.5,1.5v3
				C33.907,37.829,33.235,38.5,32.407,38.5z"/>
			<path id="path-8_6_" d="M35.48,11h-8c-0.828,0-1.5-0.671-1.5-1.5S26.652,8,27.48,8h8c0.829,0,1.5,0.671,1.5,1.5
				S36.309,11,35.48,11z"/>
		</g>
	</g>
	<g>
	</g>
	<g>
	</g>
	<g>
	</g>
	<g>
	</g>
	<g>
	</g>
	<g>
	</g>
	<g>
	</g>
	<g>
	</g>
	<g>
	</g>
	<g>
	</g>
	<g>
	</g>
	<g>
	</g>
	<g>
	</g>
	<g>
	</g>
	<g>
	</g>
</g>
<g>
</g>
<g>
</g>
<g>
</g>
<g>
</g>
<g>
</g>
<g>
</g>
<g>
</g>
<g>
</g>
<g>
</g>
<g>
</g>
<g>
</g>
<g>
</g>
<g>
</g>
<g>
</g>
<g>
</g>
</svg>
